<mxfile host="app.diagrams.net" modified="2020-12-12T18:35:01.171Z" agent="5.0 (Windows)" etag="b-7I9P1BBpmlq_eGc02W" version="14.0.1" type="github">
  <diagram id="rOoj-lsWnQTx4jqpoBWh" name="Page-1">
    <mxGraphModel dx="1185" dy="659" grid="1" gridSize="10" guides="1" tooltips="1" connect="1" arrows="1" fold="1" page="1" pageScale="1" pageWidth="827" pageHeight="1169" math="0" shadow="0">
      <root>
        <mxCell id="0" />
        <mxCell id="1" parent="0" />
        <mxCell id="xhVT0JiGNL6oQLY0PpYg-1" value="" style="shape=cylinder3;whiteSpace=wrap;html=1;boundedLbl=1;backgroundOutline=1;size=15;fillColor=#dae8fc;strokeColor=#007FFF;" vertex="1" parent="1">
          <mxGeometry x="374" y="90" width="80" height="110" as="geometry" />
        </mxCell>
        <mxCell id="xhVT0JiGNL6oQLY0PpYg-3" value="" style="endArrow=none;html=1;" edge="1" parent="1">
          <mxGeometry width="50" height="50" relative="1" as="geometry">
            <mxPoint x="374" y="130" as="sourcePoint" />
            <mxPoint x="454" y="130" as="targetPoint" />
            <Array as="points">
              <mxPoint x="394" y="140" />
              <mxPoint x="434" y="140" />
            </Array>
          </mxGeometry>
        </mxCell>
        <mxCell id="xhVT0JiGNL6oQLY0PpYg-4" value="" style="endArrow=none;html=1;strokeColor=#007FFF;" edge="1" parent="1">
          <mxGeometry width="50" height="50" relative="1" as="geometry">
            <mxPoint x="374" y="130" as="sourcePoint" />
            <mxPoint x="454" y="130" as="targetPoint" />
            <Array as="points">
              <mxPoint x="394" y="140" />
              <mxPoint x="434" y="140" />
            </Array>
          </mxGeometry>
        </mxCell>
        <mxCell id="xhVT0JiGNL6oQLY0PpYg-5" value="" style="endArrow=none;html=1;strokeColor=#007FFF;" edge="1" parent="1">
          <mxGeometry width="50" height="50" relative="1" as="geometry">
            <mxPoint x="374" y="150" as="sourcePoint" />
            <mxPoint x="454" y="150" as="targetPoint" />
            <Array as="points">
              <mxPoint x="394" y="160" />
              <mxPoint x="434" y="160" />
            </Array>
          </mxGeometry>
        </mxCell>
        <mxCell id="xhVT0JiGNL6oQLY0PpYg-6" value="" style="endArrow=none;html=1;strokeColor=#007FFF;" edge="1" parent="1">
          <mxGeometry width="50" height="50" relative="1" as="geometry">
            <mxPoint x="374" y="170" as="sourcePoint" />
            <mxPoint x="454" y="170" as="targetPoint" />
            <Array as="points">
              <mxPoint x="394" y="180" />
              <mxPoint x="434" y="180" />
            </Array>
          </mxGeometry>
        </mxCell>
        <mxCell id="xhVT0JiGNL6oQLY0PpYg-7" value="ESTRUCTURA FISICA DE UNA BASE DE DATOS" style="text;html=1;strokeColor=none;fillColor=none;align=center;verticalAlign=middle;whiteSpace=wrap;rounded=0;" vertex="1" parent="1">
          <mxGeometry x="249" y="40" width="330" height="20" as="geometry" />
        </mxCell>
        <mxCell id="xhVT0JiGNL6oQLY0PpYg-8" value="" style="ellipse;whiteSpace=wrap;html=1;" vertex="1" parent="1">
          <mxGeometry x="380" y="120" width="10" height="10" as="geometry" />
        </mxCell>
      </root>
    </mxGraphModel>
  </diagram>
</mxfile>
